<?xml version="1.0" encoding="UTF-8" standalone="no"?>
<!DOCTYPE svg PUBLIC "-//W3C//DTD SVG 1.1//EN"
 "http://www.w3.org/Graphics/SVG/1.1/DTD/svg11.dtd">
<!-- Generated by graphviz version 2.43.0 (0)
 -->
<!-- Title: G Pages: 1 -->
<svg width="487pt" height="670pt"
 viewBox="0.00 0.00 486.92 669.85" xmlns="http://www.w3.org/2000/svg" xmlns:xlink="http://www.w3.org/1999/xlink">
<g id="graph0" class="graph" transform="scale(1 1) rotate(0) translate(4 665.85)">
<title>G</title><style>.edge>path:hover{stroke-width:8}</style>
<polygon fill="white" stroke="transparent" points="-4,4 -4,-665.85 482.92,-665.85 482.92,4 -4,4"/>
<!-- todo___main__ -->
<g id="node1" class="node">
<title>todo___main__</title><style>.edge>path:hover{stroke-width:8}</style>
<ellipse fill="#8b49ac" stroke="black" cx="413" cy="-643.85" rx="36.49" ry="18"/>
<text text-anchor="middle" x="413" y="-641.35" font-family="Helvetica,sans-Serif" font-size="10.00" fill="#ffffff">__main__</text>
</g>
<!-- todo__services -->
<g id="node5" class="node">
<title>todo__services</title><style>.edge>path:hover{stroke-width:8}</style>
<ellipse fill="#8338a8" stroke="black" cx="381" cy="-571.85" rx="36.49" ry="18"/>
<text text-anchor="middle" x="381" y="-569.35" font-family="Helvetica,sans-Serif" font-size="10.00" fill="#ffffff">_services</text>
</g>
<!-- todo___main__&#45;&gt;todo__services -->
<g id="edge18" class="edge">
<title>todo___main__&#45;&gt;todo__services</title><style>.edge>path:hover{stroke-width:8}</style>
<path fill="none" stroke="black" d="M405.25,-625.91C401.56,-617.83 397.06,-607.97 392.94,-598.96"/>
<polygon fill="#8b49ac" stroke="black" points="396.02,-597.28 388.67,-589.64 389.65,-600.19 396.02,-597.28"/>
</g>
<!-- todo_di -->
<g id="node7" class="node">
<title>todo_di</title><style>.edge>path:hover{stroke-width:8}</style>
<ellipse fill="#9d26d9" stroke="black" cx="420" cy="-234" rx="27" ry="18"/>
<text text-anchor="middle" x="420" y="-231.5" font-family="Helvetica,sans-Serif" font-size="10.00" fill="#ffffff">di</text>
</g>
<!-- todo___main__&#45;&gt;todo_di -->
<g id="edge20" class="edge">
<title>todo___main__&#45;&gt;todo_di</title><style>.edge>path:hover{stroke-width:8}</style>
<path fill="none" stroke="black" d="M417.53,-625.75C428,-586.55 453.97,-491.22 467,-460.64"/>
</g>
<!-- todo__infrastructure_adapters -->
<g id="node2" class="node">
<title>todo__infrastructure_adapters</title><style>.edge>path:hover{stroke-width:8}</style>
<ellipse fill="#6b2e8a" stroke="black" cx="222" cy="-381.21" rx="64.19" ry="21.43"/>
<text text-anchor="middle" x="222" y="-384.21" font-family="Helvetica,sans-Serif" font-size="10.00" fill="#ffffff">_infrastructure.</text>
<text text-anchor="middle" x="222" y="-373.21" font-family="Helvetica,sans-Serif" font-size="10.00" fill="#ffffff">adapters</text>
</g>
<!-- todo__model -->
<g id="node4" class="node">
<title>todo__model</title><style>.edge>path:hover{stroke-width:8}</style>
<ellipse fill="#9d3bce" stroke="black" cx="268" cy="-234" rx="31.4" ry="18"/>
<text text-anchor="middle" x="268" y="-231.5" font-family="Helvetica,sans-Serif" font-size="10.00" fill="#ffffff">_model</text>
</g>
<!-- todo__infrastructure_adapters&#45;&gt;todo__model -->
<g id="edge16" class="edge">
<title>todo__infrastructure_adapters&#45;&gt;todo__model</title><style>.edge>path:hover{stroke-width:8}</style>
<path fill="none" stroke="black" d="M209,-305C211.23,-284.6 226.21,-266.98 240.52,-254.51"/>
<polygon fill="#6b2e8a" stroke="black" points="242.79,-257.18 248.32,-248.14 238.36,-251.76 242.79,-257.18"/>
</g>
<!-- csv -->
<g id="node8" class="node">
<title>csv</title><style>.edge>path:hover{stroke-width:8}</style>
<polygon fill="#b34c4c" stroke="black" points="54,-108 51,-112 30,-112 27,-108 0,-108 0,-72 54,-72 54,-108"/>
<text text-anchor="middle" x="27" y="-87.5" font-family="Helvetica,sans-Serif" font-size="10.00" fill="#ffffff">csv</text>
</g>
<!-- todo__infrastructure_adapters&#45;&gt;csv -->
<g id="edge1" class="edge">
<title>todo__infrastructure_adapters&#45;&gt;csv</title><style>.edge>path:hover{stroke-width:8}</style>
<path fill="none" stroke="black" d="M215.2,-359.81C211.11,-345.18 207.04,-324.97 209,-307"/>
<path fill="none" stroke="black" d="M209,-305C212.38,-274.07 209.52,-266.11 209,-235"/>
<path fill="none" stroke="black" d="M209,-233C208.11,-179.54 145.34,-209.88 101,-180 91.6,-173.67 89.39,-171.59 82,-163"/>
<path fill="none" stroke="black" d="M82,-161C69.49,-146.44 56.17,-129.53 45.77,-115.98"/>
<polygon fill="#6b2e8a" stroke="black" points="48.55,-113.85 39.71,-108.02 42.99,-118.1 48.55,-113.85"/>
</g>
<!-- datetime -->
<g id="node9" class="node">
<title>datetime</title><style>.edge>path:hover{stroke-width:8}</style>
<polygon fill="#b3914c" stroke="black" points="273.5,-108 270.5,-112 249.5,-112 246.5,-108 212.5,-108 212.5,-72 273.5,-72 273.5,-108"/>
<text text-anchor="middle" x="243" y="-87.5" font-family="Helvetica,sans-Serif" font-size="10.00" fill="#000000">datetime</text>
</g>
<!-- todo__infrastructure_adapters&#45;&gt;datetime -->
<g id="edge2" class="edge">
<title>todo__infrastructure_adapters&#45;&gt;datetime</title><style>.edge>path:hover{stroke-width:8}</style>
<path fill="none" stroke="black" d="M209,-233C209.16,-204.52 236.63,-207.22 245,-180 251.16,-159.97 250.23,-136.18 248,-118.24"/>
<polygon fill="#6b2e8a" stroke="black" points="251.44,-117.56 246.53,-108.17 244.51,-118.57 251.44,-117.56"/>
</g>
<!-- http -->
<g id="node10" class="node">
<title>http</title><style>.edge>path:hover{stroke-width:8}</style>
<polygon fill="#99c247" stroke="black" points="164,-180 161,-184 140,-184 137,-180 110,-180 110,-144 164,-144 164,-180"/>
<text text-anchor="middle" x="137" y="-159.5" font-family="Helvetica,sans-Serif" font-size="10.00" fill="#000000">http</text>
</g>
<!-- todo__infrastructure_adapters&#45;&gt;http -->
<g id="edge3" class="edge">
<title>todo__infrastructure_adapters&#45;&gt;http</title><style>.edge>path:hover{stroke-width:8}</style>
<path fill="none" stroke="black" d="M209,-233C209.12,-210.68 191.11,-193.17 173.07,-181.25"/>
<polygon fill="#6b2e8a" stroke="black" points="174.65,-178.11 164.3,-175.85 170.98,-184.07 174.65,-178.11"/>
</g>
<!-- io -->
<g id="node12" class="node">
<title>io</title><style>.edge>path:hover{stroke-width:8}</style>
<polygon fill="#3bce9d" stroke="black" points="109,-36 106,-40 85,-40 82,-36 55,-36 55,0 109,0 109,-36"/>
<text text-anchor="middle" x="82" y="-15.5" font-family="Helvetica,sans-Serif" font-size="10.00" fill="#000000">io</text>
</g>
<!-- todo__infrastructure_adapters&#45;&gt;io -->
<g id="edge7" class="edge">
<title>todo__infrastructure_adapters&#45;&gt;io</title><style>.edge>path:hover{stroke-width:8}</style>
<path fill="none" stroke="black" d="M82,-161C54.86,-129.42 63.53,-77.7 72.58,-46.16"/>
<polygon fill="#6b2e8a" stroke="black" points="76.02,-46.88 75.61,-36.29 69.32,-44.83 76.02,-46.88"/>
</g>
<!-- json -->
<g id="node13" class="node">
<title>json</title><style>.edge>path:hover{stroke-width:8}</style>
<polygon fill="#5395b6" stroke="black" points="236,-180 233,-184 212,-184 209,-180 182,-180 182,-144 236,-144 236,-180"/>
<text text-anchor="middle" x="209" y="-159.5" font-family="Helvetica,sans-Serif" font-size="10.00" fill="#000000">json</text>
</g>
<!-- todo__infrastructure_adapters&#45;&gt;json -->
<g id="edge8" class="edge">
<title>todo__infrastructure_adapters&#45;&gt;json</title><style>.edge>path:hover{stroke-width:8}</style>
<path fill="none" stroke="black" d="M209,-233C209.08,-218.95 209.09,-203.31 209.07,-190.39"/>
<polygon fill="#6b2e8a" stroke="black" points="212.57,-190.25 209.05,-180.26 205.57,-190.27 212.57,-190.25"/>
</g>
<!-- typing -->
<g id="node15" class="node">
<title>typing</title><style>.edge>path:hover{stroke-width:8}</style>
<polygon fill="#c04095" stroke="black" points="384,-180 381,-184 360,-184 357,-180 330,-180 330,-144 384,-144 384,-180"/>
<text text-anchor="middle" x="357" y="-159.5" font-family="Helvetica,sans-Serif" font-size="10.00" fill="#ffffff">typing</text>
</g>
<!-- todo__infrastructure_adapters&#45;&gt;typing -->
<g id="edge23" class="edge">
<title>todo__infrastructure_adapters&#45;&gt;typing</title><style>.edge>path:hover{stroke-width:8}</style>
<path fill="none" stroke="black" d="M209,-233C209.14,-208.48 276.33,-185.21 320.12,-172.65"/>
<polygon fill="#6b2e8a" stroke="black" points="321.2,-175.98 329.89,-169.91 319.31,-169.24 321.2,-175.98"/>
</g>
<!-- todo__infrastructure_command_interface -->
<g id="node3" class="node">
<title>todo__infrastructure_command_interface</title><style>.edge>path:hover{stroke-width:8}</style>
<ellipse fill="#8f3db8" stroke="black" cx="358" cy="-459.64" rx="80.72" ry="21.43"/>
<text text-anchor="middle" x="358" y="-462.64" font-family="Helvetica,sans-Serif" font-size="10.00" fill="#ffffff">_infrastructure.</text>
<text text-anchor="middle" x="358" y="-451.64" font-family="Helvetica,sans-Serif" font-size="10.00" fill="#ffffff">command_interface</text>
</g>
<!-- todo__use_cases -->
<g id="node6" class="node">
<title>todo__use_cases</title><style>.edge>path:hover{stroke-width:8}</style>
<ellipse fill="#893ab0" stroke="black" cx="397" cy="-306" rx="42.27" ry="18"/>
<text text-anchor="middle" x="397" y="-303.5" font-family="Helvetica,sans-Serif" font-size="10.00" fill="#ffffff">_use_cases</text>
</g>
<!-- todo__infrastructure_command_interface&#45;&gt;todo__use_cases -->
<g id="edge19" class="edge">
<title>todo__infrastructure_command_interface&#45;&gt;todo__use_cases</title><style>.edge>path:hover{stroke-width:8}</style>
<path fill="none" stroke="black" d="M327,-380.21C327.67,-357.4 345.65,-338.91 363.22,-326.21"/>
<polygon fill="#8f3db8" stroke="black" points="365.41,-328.95 371.73,-320.45 361.48,-323.16 365.41,-328.95"/>
</g>
<!-- sys -->
<g id="node14" class="node">
<title>sys</title><style>.edge>path:hover{stroke-width:8}</style>
<polygon fill="#2222e7" stroke="black" points="270,-36 267,-40 246,-40 243,-36 216,-36 216,0 270,0 270,-36"/>
<text text-anchor="middle" x="243" y="-15.5" font-family="Helvetica,sans-Serif" font-size="10.00" fill="#ffffff">sys</text>
</g>
<!-- todo__infrastructure_command_interface&#45;&gt;sys -->
<g id="edge12" class="edge">
<title>todo__infrastructure_command_interface&#45;&gt;sys</title><style>.edge>path:hover{stroke-width:8}</style>
<path fill="none" stroke="black" d="M344.49,-438.44C335.87,-423.53 326.4,-402.39 327,-382.21"/>
<path fill="none" stroke="black" d="M327,-380.21C327.95,-347.97 318.19,-118.9 302,-91"/>
<path fill="none" stroke="black" d="M302,-89C291.8,-72.87 278.19,-56.47 266.61,-43.6"/>
<polygon fill="#8f3db8" stroke="black" points="269.05,-41.09 259.71,-36.08 263.89,-45.82 269.05,-41.09"/>
</g>
<!-- todo__services&#45;&gt;todo__infrastructure_adapters -->
<g id="edge14" class="edge">
<title>todo__services&#45;&gt;todo__infrastructure_adapters</title><style>.edge>path:hover{stroke-width:8}</style>
<path fill="none" stroke="black" d="M376.93,-553.7C374.52,-543.35 371.47,-529.87 369,-517.85"/>
<path fill="none" stroke="black" d="M369,-516.85C359.41,-470.17 303.24,-512.93 268,-480.85 247.97,-462.63 235.95,-433.9 229.25,-412.13"/>
<polygon fill="#8338a8" stroke="black" points="232.58,-411.03 226.46,-402.39 225.85,-412.96 232.58,-411.03"/>
</g>
<!-- todo__services&#45;&gt;todo__infrastructure_command_interface -->
<g id="edge15" class="edge">
<title>todo__services&#45;&gt;todo__infrastructure_command_interface</title><style>.edge>path:hover{stroke-width:8}</style>
<path fill="none" stroke="black" d="M369,-516.85C367.27,-508.4 365.44,-499.23 363.79,-490.79"/>
<polygon fill="#8338a8" stroke="black" points="367.22,-490.1 361.88,-480.95 360.35,-491.44 367.22,-490.1"/>
</g>
<!-- todo__services&#45;&gt;todo_di -->
<g id="edge21" class="edge">
<title>todo__services&#45;&gt;todo_di</title><style>.edge>path:hover{stroke-width:8}</style>
<path fill="none" stroke="black" d="M369,-516.85C361.77,-478.95 416.64,-503.33 448,-480.85 458.02,-473.67 462.75,-472.21 467,-460.64"/>
<path fill="none" stroke="black" d="M467,-458.64C493.31,-387.01 470.44,-360.93 448,-288 445.03,-278.36 440.3,-268.42 435.56,-259.79"/>
<polygon fill="#8338a8" stroke="black" points="438.53,-257.93 430.5,-251.02 432.47,-261.43 438.53,-257.93"/>
</g>
<!-- todo__use_cases&#45;&gt;todo__model -->
<g id="edge17" class="edge">
<title>todo__use_cases&#45;&gt;todo__model</title><style>.edge>path:hover{stroke-width:8}</style>
<path fill="none" stroke="black" d="M371.82,-291.34C351.03,-280.06 321.44,-264 299.16,-251.91"/>
<polygon fill="#893ab0" stroke="black" points="300.56,-248.69 290.1,-246.99 297.22,-254.84 300.56,-248.69"/>
</g>
<!-- todo__use_cases&#45;&gt;todo_di -->
<g id="edge22" class="edge">
<title>todo__use_cases&#45;&gt;todo_di</title><style>.edge>path:hover{stroke-width:8}</style>
<path fill="none" stroke="black" d="M402.57,-288.05C405.2,-280.06 408.39,-270.33 411.33,-261.4"/>
<polygon fill="#893ab0" stroke="black" points="414.69,-262.38 414.48,-251.79 408.04,-260.2 414.69,-262.38"/>
</g>
<!-- todo__use_cases&#45;&gt;typing -->
<g id="edge24" class="edge">
<title>todo__use_cases&#45;&gt;typing</title><style>.edge>path:hover{stroke-width:8}</style>
<path fill="none" stroke="black" d="M392.18,-287.87C385.33,-263.56 372.72,-218.82 364.61,-190.01"/>
<polygon fill="#893ab0" stroke="black" points="367.92,-188.87 361.84,-180.19 361.18,-190.76 367.92,-188.87"/>
</g>
<!-- inspect -->
<g id="node11" class="node">
<title>inspect</title><style>.edge>path:hover{stroke-width:8}</style>
<polygon fill="#4cb34c" stroke="black" points="415,-108 412,-112 391,-112 388,-108 361,-108 361,-72 415,-72 415,-108"/>
<text text-anchor="middle" x="388" y="-87.5" font-family="Helvetica,sans-Serif" font-size="10.00" fill="#000000">inspect</text>
</g>
<!-- todo_di&#45;&gt;inspect -->
<g id="edge4" class="edge">
<title>todo_di&#45;&gt;inspect</title><style>.edge>path:hover{stroke-width:8}</style>
<path fill="none" stroke="black" d="M416.2,-216.15C410.75,-191.94 400.63,-147.05 394.11,-118.13"/>
<polygon fill="#9d26d9" stroke="black" points="397.5,-117.25 391.89,-108.27 390.68,-118.79 397.5,-117.25"/>
</g>
<!-- csv&#45;&gt;io -->
<g id="edge5" class="edge">
<title>csv&#45;&gt;io</title><style>.edge>path:hover{stroke-width:8}</style>
<path fill="none" stroke="black" d="M40.6,-71.7C47.12,-63.39 55.07,-53.28 62.25,-44.14"/>
<polygon fill="#b34c4c" stroke="black" points="65.13,-46.13 68.56,-36.1 59.63,-41.81 65.13,-46.13"/>
</g>
<!-- datetime&#45;&gt;sys -->
<g id="edge9" class="edge">
<title>datetime&#45;&gt;sys</title><style>.edge>path:hover{stroke-width:8}</style>
<path fill="none" stroke="black" d="M243,-71.7C243,-63.98 243,-54.71 243,-46.11"/>
<polygon fill="#b3914c" stroke="black" points="246.5,-46.1 243,-36.1 239.5,-46.1 246.5,-46.1"/>
</g>
<!-- http&#45;&gt;io -->
<g id="edge6" class="edge">
<title>http&#45;&gt;io</title><style>.edge>path:hover{stroke-width:8}</style>
<path fill="none" stroke="black" d="M144.6,-143.86C150.35,-129.93 157.78,-109.61 161,-91"/>
<path fill="none" stroke="black" d="M161,-89C165.39,-63.61 141.12,-44.99 118.35,-33.37"/>
<polygon fill="#99c247" stroke="black" points="119.64,-30.1 109.1,-28.96 116.63,-36.42 119.64,-30.1"/>
</g>
<!-- http&#45;&gt;sys -->
<g id="edge10" class="edge">
<title>http&#45;&gt;sys</title><style>.edge>path:hover{stroke-width:8}</style>
<path fill="none" stroke="black" d="M161,-89C165.21,-64.69 186.82,-46.85 206.8,-35.27"/>
<polygon fill="#99c247" stroke="black" points="208.68,-38.24 215.8,-30.39 205.34,-32.08 208.68,-38.24"/>
</g>
<!-- inspect&#45;&gt;sys -->
<g id="edge11" class="edge">
<title>inspect&#45;&gt;sys</title><style>.edge>path:hover{stroke-width:8}</style>
<path fill="none" stroke="black" d="M360.73,-75.83C337.74,-64.74 304.65,-48.76 279.41,-36.58"/>
<polygon fill="#4cb34c" stroke="black" points="280.68,-33.3 270.15,-32.11 277.63,-39.61 280.68,-33.3"/>
</g>
<!-- typing&#45;&gt;sys -->
<g id="edge13" class="edge">
<title>typing&#45;&gt;sys</title><style>.edge>path:hover{stroke-width:8}</style>
<path fill="none" stroke="black" d="M341.29,-143.86C329.4,-130.27 313.25,-110.38 302,-91"/>
</g>
</g>
</svg>
