<?xml version="1.0" encoding="UTF-8" standalone="no"?>
<!DOCTYPE svg PUBLIC "-//W3C//DTD SVG 1.1//EN"
 "http://www.w3.org/Graphics/SVG/1.1/DTD/svg11.dtd">
<!-- Generated by graphviz version 2.43.0 (0)
 -->
<!-- Title: G Pages: 1 -->
<svg width="976pt" height="377pt"
 viewBox="0.00 0.00 976.07 377.00" xmlns="http://www.w3.org/2000/svg" xmlns:xlink="http://www.w3.org/1999/xlink">
<g id="graph0" class="graph" transform="scale(1 1) rotate(0) translate(4 373)">
<title>G</title><style>.edge>path:hover{stroke-width:8}</style>
<polygon fill="white" stroke="transparent" points="-4,4 -4,-373 972.07,-373 972.07,4 -4,4"/>
<!-- todo___main__ -->
<g id="node1" class="node">
<title>todo___main__</title><style>.edge>path:hover{stroke-width:8}</style>
<ellipse fill="#8b49ac" stroke="black" cx="36.5" cy="-18" rx="36.49" ry="18"/>
<text text-anchor="middle" x="36.5" y="-15.5" font-family="Helvetica,sans-Serif" font-size="10.00" fill="#ffffff">__main__</text>
</g>
<!-- todo__infrastructure__services -->
<g id="node2" class="node">
<title>todo__infrastructure__services</title><style>.edge>path:hover{stroke-width:8}</style>
<ellipse fill="#8338a8" stroke="black" cx="210.34" cy="-67" rx="64.19" ry="21.43"/>
<text text-anchor="middle" x="210.34" y="-70" font-family="Helvetica,sans-Serif" font-size="10.00" fill="#ffffff">_infrastructure.</text>
<text text-anchor="middle" x="210.34" y="-59" font-family="Helvetica,sans-Serif" font-size="10.00" fill="#ffffff">_services</text>
</g>
<!-- todo___main__&#45;&gt;todo__infrastructure__services -->
<g id="edge16" class="edge">
<title>todo___main__&#45;&gt;todo__infrastructure__services</title><style>.edge>path:hover{stroke-width:8}</style>
<path fill="none" stroke="black" d="M109.99,-18C116.32,-18.76 142.74,-31.87 166.74,-44.34"/>
<polygon fill="#8b49ac" stroke="black" points="165.29,-47.53 175.77,-49.06 168.53,-41.33 165.29,-47.53"/>
</g>
<!-- bitedi -->
<g id="node7" class="node">
<title>bitedi</title><style>.edge>path:hover{stroke-width:8}</style>
<polygon fill="#db2f2f" stroke="black" points="781.07,-85 778.07,-89 757.07,-89 754.07,-85 727.07,-85 727.07,-49 781.07,-49 781.07,-85"/>
<text text-anchor="middle" x="754.07" y="-64.5" font-family="Helvetica,sans-Serif" font-size="10.00" fill="#ffffff">bitedi</text>
</g>
<!-- todo___main__&#45;&gt;bitedi -->
<g id="edge1" class="edge">
<title>todo___main__&#45;&gt;bitedi</title><style>.edge>path:hover{stroke-width:8}</style>
<path fill="none" stroke="black" d="M72.87,-16.34C84.42,-16.24 97.29,-16.6 108.99,-18"/>
<path fill="none" stroke="black" d="M109.99,-18C183.15,-26.76 202.25,-23.49 274.69,-37 326.87,-46.73 337.33,-63.43 390.3,-67"/>
<path fill="none" stroke="black" d="M392.3,-67C510.81,-73.04 651.5,-70.14 716.64,-68.22"/>
<polygon fill="#8b49ac" stroke="black" points="716.91,-71.72 726.8,-67.92 716.69,-64.72 716.91,-71.72"/>
</g>
<!-- todo__infrastructure_adapters -->
<g id="node3" class="node">
<title>todo__infrastructure_adapters</title><style>.edge>path:hover{stroke-width:8}</style>
<ellipse fill="#6b2e8a" stroke="black" cx="391.3" cy="-214" rx="64.19" ry="21.43"/>
<text text-anchor="middle" x="391.3" y="-217" font-family="Helvetica,sans-Serif" font-size="10.00" fill="#ffffff">_infrastructure.</text>
<text text-anchor="middle" x="391.3" y="-206" font-family="Helvetica,sans-Serif" font-size="10.00" fill="#ffffff">adapters</text>
</g>
<!-- todo__infrastructure__services&#45;&gt;todo__infrastructure_adapters -->
<g id="edge17" class="edge">
<title>todo__infrastructure__services&#45;&gt;todo__infrastructure_adapters</title><style>.edge>path:hover{stroke-width:8}</style>
<path fill="none" stroke="black" d="M225.66,-88.05C243.26,-112.61 275.19,-153.13 310.69,-179 318.74,-184.87 327.93,-190.04 337.14,-194.48"/>
<polygon fill="#8338a8" stroke="black" points="335.77,-197.7 346.31,-198.67 338.68,-191.33 335.77,-197.7"/>
</g>
<!-- todo__infrastructure_command_interface -->
<g id="node4" class="node">
<title>todo__infrastructure_command_interface</title><style>.edge>path:hover{stroke-width:8}</style>
<ellipse fill="#8f3db8" stroke="black" cx="391.3" cy="-116" rx="80.72" ry="21.43"/>
<text text-anchor="middle" x="391.3" y="-119" font-family="Helvetica,sans-Serif" font-size="10.00" fill="#ffffff">_infrastructure.</text>
<text text-anchor="middle" x="391.3" y="-108" font-family="Helvetica,sans-Serif" font-size="10.00" fill="#ffffff">command_interface</text>
</g>
<!-- todo__infrastructure__services&#45;&gt;todo__infrastructure_command_interface -->
<g id="edge18" class="edge">
<title>todo__infrastructure__services&#45;&gt;todo__infrastructure_command_interface</title><style>.edge>path:hover{stroke-width:8}</style>
<path fill="none" stroke="black" d="M260.72,-80.52C280.54,-85.95 303.68,-92.28 324.88,-98.09"/>
<polygon fill="#8338a8" stroke="black" points="324.21,-101.53 334.78,-100.8 326.06,-94.78 324.21,-101.53"/>
</g>
<!-- todo__use_cases -->
<g id="node6" class="node">
<title>todo__use_cases</title><style>.edge>path:hover{stroke-width:8}</style>
<ellipse fill="#893ab0" stroke="black" cx="550.29" cy="-165" rx="42.27" ry="18"/>
<text text-anchor="middle" x="550.29" y="-162.5" font-family="Helvetica,sans-Serif" font-size="10.00" fill="#ffffff">_use_cases</text>
</g>
<!-- todo__infrastructure__services&#45;&gt;todo__use_cases -->
<g id="edge21" class="edge">
<title>todo__infrastructure__services&#45;&gt;todo__use_cases</title><style>.edge>path:hover{stroke-width:8}</style>
<path fill="none" stroke="black" d="M229.63,-87.25C248.05,-106.13 278.3,-133.23 310.69,-146 372.04,-170.2 449.03,-171.69 498.69,-169.34"/>
<polygon fill="#8338a8" stroke="black" points="499.06,-172.82 508.85,-168.78 498.68,-165.83 499.06,-172.82"/>
</g>
<!-- todo__infrastructure__services&#45;&gt;bitedi -->
<g id="edge2" class="edge">
<title>todo__infrastructure__services&#45;&gt;bitedi</title><style>.edge>path:hover{stroke-width:8}</style>
<path fill="none" stroke="black" d="M274.77,-64.93C309.02,-64.33 352.01,-64.42 390.3,-67"/>
</g>
<!-- todo__model -->
<g id="node5" class="node">
<title>todo__model</title><style>.edge>path:hover{stroke-width:8}</style>
<ellipse fill="#9d3bce" stroke="black" cx="659.87" cy="-205" rx="31.4" ry="18"/>
<text text-anchor="middle" x="659.87" y="-202.5" font-family="Helvetica,sans-Serif" font-size="10.00" fill="#ffffff">_model</text>
</g>
<!-- todo__infrastructure_adapters&#45;&gt;todo__model -->
<g id="edge19" class="edge">
<title>todo__infrastructure_adapters&#45;&gt;todo__model</title><style>.edge>path:hover{stroke-width:8}</style>
<path fill="none" stroke="black" d="M435.31,-229.54C466.5,-239.47 509.95,-250.57 549.29,-251"/>
<path fill="none" stroke="black" d="M551.29,-251C580.13,-251.31 610.08,-237.13 631.03,-224.43"/>
<polygon fill="#6b2e8a" stroke="black" points="633.12,-227.25 639.7,-218.94 629.38,-221.33 633.12,-227.25"/>
</g>
<!-- csv -->
<g id="node8" class="node">
<title>csv</title><style>.edge>path:hover{stroke-width:8}</style>
<polygon fill="#b3914c" stroke="black" points="874.57,-369 871.57,-373 850.57,-373 847.57,-369 820.57,-369 820.57,-333 874.57,-333 874.57,-369"/>
<text text-anchor="middle" x="847.57" y="-348.5" font-family="Helvetica,sans-Serif" font-size="10.00" fill="#000000">csv</text>
</g>
<!-- todo__infrastructure_adapters&#45;&gt;csv -->
<g id="edge5" class="edge">
<title>todo__infrastructure_adapters&#45;&gt;csv</title><style>.edge>path:hover{stroke-width:8}</style>
<path fill="none" stroke="black" d="M755.07,-351C772.74,-356.21 793.17,-356.71 810.24,-355.68"/>
<polygon fill="#6b2e8a" stroke="black" points="810.68,-359.16 820.38,-354.88 810.13,-352.18 810.68,-359.16"/>
</g>
<!-- datetime -->
<g id="node9" class="node">
<title>datetime</title><style>.edge>path:hover{stroke-width:8}</style>
<polygon fill="#91b34c" stroke="black" points="878.07,-223 875.07,-227 854.07,-227 851.07,-223 817.07,-223 817.07,-187 878.07,-187 878.07,-223"/>
<text text-anchor="middle" x="847.57" y="-202.5" font-family="Helvetica,sans-Serif" font-size="10.00" fill="#000000">datetime</text>
</g>
<!-- todo__infrastructure_adapters&#45;&gt;datetime -->
<g id="edge6" class="edge">
<title>todo__infrastructure_adapters&#45;&gt;datetime</title><style>.edge>path:hover{stroke-width:8}</style>
<path fill="none" stroke="black" d="M660.87,-251C692.64,-251.54 696.47,-232.55 727.07,-224 753.16,-216.71 783.28,-211.95 806.75,-209.01"/>
<polygon fill="#6b2e8a" stroke="black" points="807.19,-212.48 816.7,-207.82 806.36,-205.53 807.19,-212.48"/>
</g>
<!-- http -->
<g id="node10" class="node">
<title>http</title><style>.edge>path:hover{stroke-width:8}</style>
<polygon fill="#47c247" stroke="black" points="781.07,-269 778.07,-273 757.07,-273 754.07,-269 727.07,-269 727.07,-233 781.07,-233 781.07,-269"/>
<text text-anchor="middle" x="754.07" y="-248.5" font-family="Helvetica,sans-Serif" font-size="10.00" fill="#000000">http</text>
</g>
<!-- todo__infrastructure_adapters&#45;&gt;http -->
<g id="edge7" class="edge">
<title>todo__infrastructure_adapters&#45;&gt;http</title><style>.edge>path:hover{stroke-width:8}</style>
<path fill="none" stroke="black" d="M660.87,-251C679.3,-251.31 699.79,-251.34 716.77,-251.28"/>
<polygon fill="#6b2e8a" stroke="black" points="716.86,-254.78 726.84,-251.24 716.83,-247.78 716.86,-254.78"/>
</g>
<!-- io -->
<g id="node11" class="node">
<title>io</title><style>.edge>path:hover{stroke-width:8}</style>
<polygon fill="#3bce9d" stroke="black" points="968.07,-300 965.07,-304 944.07,-304 941.07,-300 914.07,-300 914.07,-264 968.07,-264 968.07,-300"/>
<text text-anchor="middle" x="941.07" y="-279.5" font-family="Helvetica,sans-Serif" font-size="10.00" fill="#000000">io</text>
</g>
<!-- todo__infrastructure_adapters&#45;&gt;io -->
<g id="edge10" class="edge">
<title>todo__infrastructure_adapters&#45;&gt;io</title><style>.edge>path:hover{stroke-width:8}</style>
<path fill="none" stroke="black" d="M660.87,-251C721.3,-252.86 695.09,-333.89 753.07,-351"/>
<path fill="none" stroke="black" d="M755.07,-351C783.9,-359.51 789.05,-334.87 817.07,-324 846.1,-312.74 879.58,-301.42 904.27,-293.37"/>
<polygon fill="#6b2e8a" stroke="black" points="905.5,-296.65 913.94,-290.24 903.34,-289.99 905.5,-296.65"/>
</g>
<!-- json -->
<g id="node12" class="node">
<title>json</title><style>.edge>path:hover{stroke-width:8}</style>
<polygon fill="#5395b6" stroke="black" points="781.07,-323 778.07,-327 757.07,-327 754.07,-323 727.07,-323 727.07,-287 781.07,-287 781.07,-323"/>
<text text-anchor="middle" x="754.07" y="-302.5" font-family="Helvetica,sans-Serif" font-size="10.00" fill="#000000">json</text>
</g>
<!-- todo__infrastructure_adapters&#45;&gt;json -->
<g id="edge11" class="edge">
<title>todo__infrastructure_adapters&#45;&gt;json</title><style>.edge>path:hover{stroke-width:8}</style>
<path fill="none" stroke="black" d="M660.87,-251C685.74,-251.42 709.85,-266.21 727.17,-280.2"/>
<polygon fill="#6b2e8a" stroke="black" points="725.22,-283.14 735.1,-286.94 729.75,-277.8 725.22,-283.14"/>
</g>
<!-- typing -->
<g id="node14" class="node">
<title>typing</title><style>.edge>path:hover{stroke-width:8}</style>
<polygon fill="#c04095" stroke="black" points="781.07,-177 778.07,-181 757.07,-181 754.07,-177 727.07,-177 727.07,-141 781.07,-141 781.07,-177"/>
<text text-anchor="middle" x="754.07" y="-156.5" font-family="Helvetica,sans-Serif" font-size="10.00" fill="#ffffff">typing</text>
</g>
<!-- todo__infrastructure_adapters&#45;&gt;typing -->
<g id="edge22" class="edge">
<title>todo__infrastructure_adapters&#45;&gt;typing</title><style>.edge>path:hover{stroke-width:8}</style>
<path fill="none" stroke="black" d="M551.29,-251C599.1,-251.52 611.07,-250.19 658.87,-251"/>
<path fill="none" stroke="black" d="M660.87,-251C676.73,-251.27 679.09,-242.39 691.07,-232 695.69,-228 715.45,-204.52 731.44,-185.26"/>
<polygon fill="#6b2e8a" stroke="black" points="734.32,-187.26 738,-177.33 728.93,-182.8 734.32,-187.26"/>
</g>
<!-- todo__infrastructure_command_interface&#45;&gt;bitedi -->
<g id="edge3" class="edge">
<title>todo__infrastructure_command_interface&#45;&gt;bitedi</title><style>.edge>path:hover{stroke-width:8}</style>
<path fill="none" stroke="black" d="M471.03,-119.58C524.26,-120.9 596.03,-120.56 658.87,-113"/>
<path fill="none" stroke="black" d="M660.87,-113C681.32,-109.88 702.09,-100.19 718.74,-90.51"/>
<polygon fill="#8f3db8" stroke="black" points="720.8,-93.36 727.53,-85.18 717.17,-87.37 720.8,-93.36"/>
</g>
<!-- sys -->
<g id="node13" class="node">
<title>sys</title><style>.edge>path:hover{stroke-width:8}</style>
<polygon fill="#2f2fdb" stroke="black" points="968.07,-223 965.07,-227 944.07,-227 941.07,-223 914.07,-223 914.07,-187 968.07,-187 968.07,-223"/>
<text text-anchor="middle" x="941.07" y="-202.5" font-family="Helvetica,sans-Serif" font-size="10.00" fill="#ffffff">sys</text>
</g>
<!-- todo__infrastructure_command_interface&#45;&gt;sys -->
<g id="edge14" class="edge">
<title>todo__infrastructure_command_interface&#45;&gt;sys</title><style>.edge>path:hover{stroke-width:8}</style>
<path fill="none" stroke="black" d="M660.87,-113C742.46,-100.53 766.99,-91.14 846.57,-113"/>
<path fill="none" stroke="black" d="M848.57,-113C882.01,-123.2 908.53,-154.84 924.23,-178.18"/>
<polygon fill="#8f3db8" stroke="black" points="921.34,-180.16 929.71,-186.65 927.22,-176.35 921.34,-180.16"/>
</g>
<!-- todo__use_cases&#45;&gt;todo__model -->
<g id="edge20" class="edge">
<title>todo__use_cases&#45;&gt;todo__model</title><style>.edge>path:hover{stroke-width:8}</style>
<path fill="none" stroke="black" d="M582.7,-176.68C595.45,-181.42 610.24,-186.92 623.38,-191.8"/>
<polygon fill="#893ab0" stroke="black" points="622.45,-195.19 633.05,-195.4 624.89,-188.63 622.45,-195.19"/>
</g>
<!-- todo__use_cases&#45;&gt;bitedi -->
<g id="edge4" class="edge">
<title>todo__use_cases&#45;&gt;bitedi</title><style>.edge>path:hover{stroke-width:8}</style>
<path fill="none" stroke="black" d="M592.75,-166.49C612.99,-166.27 637.51,-164.56 658.87,-159"/>
<path fill="none" stroke="black" d="M660.87,-159C695.03,-150.12 721.8,-117.87 737.51,-94.05"/>
<polygon fill="#893ab0" stroke="black" points="740.59,-95.73 742.97,-85.4 734.67,-91.99 740.59,-95.73"/>
</g>
<!-- todo__use_cases&#45;&gt;typing -->
<g id="edge23" class="edge">
<title>todo__use_cases&#45;&gt;typing</title><style>.edge>path:hover{stroke-width:8}</style>
<path fill="none" stroke="black" d="M660.87,-159C678.83,-154.33 699.44,-153.89 716.61,-154.8"/>
<polygon fill="#893ab0" stroke="black" points="716.57,-158.31 726.8,-155.53 717.07,-151.33 716.57,-158.31"/>
</g>
<!-- csv&#45;&gt;io -->
<g id="edge8" class="edge">
<title>csv&#45;&gt;io</title><style>.edge>path:hover{stroke-width:8}</style>
<path fill="none" stroke="black" d="M872.61,-332.87C883.44,-324.71 896.37,-314.96 908,-306.19"/>
<polygon fill="#b3914c" stroke="black" points="910.32,-308.82 916.19,-300.01 906.1,-303.23 910.32,-308.82"/>
</g>
<!-- datetime&#45;&gt;sys -->
<g id="edge12" class="edge">
<title>datetime&#45;&gt;sys</title><style>.edge>path:hover{stroke-width:8}</style>
<path fill="none" stroke="black" d="M878.28,-205C886.44,-205 895.38,-205 903.87,-205"/>
<polygon fill="#91b34c" stroke="black" points="903.91,-208.5 913.91,-205 903.91,-201.5 903.91,-208.5"/>
</g>
<!-- http&#45;&gt;io -->
<g id="edge9" class="edge">
<title>http&#45;&gt;io</title><style>.edge>path:hover{stroke-width:8}</style>
<path fill="none" stroke="black" d="M848.57,-259C867.28,-258.26 887.52,-262.77 904.19,-267.98"/>
<polygon fill="#47c247" stroke="black" points="903.48,-271.43 914.07,-271.28 905.69,-264.79 903.48,-271.43"/>
</g>
<!-- http&#45;&gt;sys -->
<g id="edge13" class="edge">
<title>http&#45;&gt;sys</title><style>.edge>path:hover{stroke-width:8}</style>
<path fill="none" stroke="black" d="M781.46,-255.09C799.71,-257.48 824.59,-259.87 846.57,-259"/>
<path fill="none" stroke="black" d="M848.57,-259C873.12,-258.03 896.9,-243.45 914.06,-229.69"/>
<polygon fill="#47c247" stroke="black" points="916.53,-232.18 921.92,-223.06 912.02,-226.82 916.53,-232.18"/>
</g>
<!-- typing&#45;&gt;sys -->
<g id="edge15" class="edge">
<title>typing&#45;&gt;sys</title><style>.edge>path:hover{stroke-width:8}</style>
<path fill="none" stroke="black" d="M772.79,-140.97C790.62,-125.07 819.31,-105.51 846.57,-113"/>
</g>
</g>
</svg>
