<?xml version="1.0" encoding="UTF-8" standalone="no"?>
<!DOCTYPE svg PUBLIC "-//W3C//DTD SVG 1.1//EN"
 "http://www.w3.org/Graphics/SVG/1.1/DTD/svg11.dtd">
<!-- Generated by graphviz version 2.43.0 (0)
 -->
<!-- Title: G Pages: 1 -->
<svg width="976pt" height="378pt"
 viewBox="0.00 0.00 976.07 378.00" xmlns="http://www.w3.org/2000/svg" xmlns:xlink="http://www.w3.org/1999/xlink">
<g id="graph0" class="graph" transform="scale(1 1) rotate(0) translate(4 374)">
<title>G</title><style>.edge>path:hover{stroke-width:8}</style>
<polygon fill="white" stroke="transparent" points="-4,4 -4,-374 972.07,-374 972.07,4 -4,4"/>
<!-- todo___main__ -->
<g id="node1" class="node">
<title>todo___main__</title><style>.edge>path:hover{stroke-width:8}</style>
<ellipse fill="#8b49ac" stroke="black" cx="36.5" cy="-352" rx="36.49" ry="18"/>
<text text-anchor="middle" x="36.5" y="-349.5" font-family="Helvetica,sans-Serif" font-size="10.00" fill="#ffffff">__main__</text>
</g>
<!-- todo__infrastructure__services -->
<g id="node2" class="node">
<title>todo__infrastructure__services</title><style>.edge>path:hover{stroke-width:8}</style>
<ellipse fill="#7d35a1" stroke="black" cx="210.34" cy="-279" rx="64.19" ry="21.43"/>
<text text-anchor="middle" x="210.34" y="-282" font-family="Helvetica,sans-Serif" font-size="10.00" fill="#ffffff">_infrastructure.</text>
<text text-anchor="middle" x="210.34" y="-271" font-family="Helvetica,sans-Serif" font-size="10.00" fill="#ffffff">_services</text>
</g>
<!-- todo___main__&#45;&gt;todo__infrastructure__services -->
<g id="edge14" class="edge">
<title>todo___main__&#45;&gt;todo__infrastructure__services</title><style>.edge>path:hover{stroke-width:8}</style>
<path fill="none" stroke="black" d="M72.98,-354.42C84.54,-354.56 97.38,-354.04 108.99,-352"/>
<path fill="none" stroke="black" d="M109.99,-352C139.51,-346.82 166.45,-325.48 184.81,-307.19"/>
<polygon fill="#8b49ac" stroke="black" points="187.71,-309.23 192.14,-299.6 182.67,-304.37 187.71,-309.23"/>
</g>
<!-- todo_di -->
<g id="node7" class="node">
<title>todo_di</title><style>.edge>path:hover{stroke-width:8}</style>
<ellipse fill="#a219e6" stroke="black" cx="659.87" cy="-302" rx="27" ry="18"/>
<text text-anchor="middle" x="659.87" y="-299.5" font-family="Helvetica,sans-Serif" font-size="10.00" fill="#ffffff">di</text>
</g>
<!-- todo___main__&#45;&gt;todo_di -->
<g id="edge20" class="edge">
<title>todo___main__&#45;&gt;todo_di</title><style>.edge>path:hover{stroke-width:8}</style>
<path fill="none" stroke="black" d="M109.99,-352C268.64,-324.17 314.41,-366.76 471.91,-333 507.98,-325.27 512.41,-303.17 549.29,-303"/>
</g>
<!-- todo__infrastructure_adapters -->
<g id="node3" class="node">
<title>todo__infrastructure_adapters</title><style>.edge>path:hover{stroke-width:8}</style>
<ellipse fill="#6b2e8a" stroke="black" cx="391.3" cy="-205" rx="64.19" ry="21.43"/>
<text text-anchor="middle" x="391.3" y="-208" font-family="Helvetica,sans-Serif" font-size="10.00" fill="#ffffff">_infrastructure.</text>
<text text-anchor="middle" x="391.3" y="-197" font-family="Helvetica,sans-Serif" font-size="10.00" fill="#ffffff">adapters</text>
</g>
<!-- todo__infrastructure__services&#45;&gt;todo__infrastructure_adapters -->
<g id="edge15" class="edge">
<title>todo__infrastructure__services&#45;&gt;todo__infrastructure_adapters</title><style>.edge>path:hover{stroke-width:8}</style>
<path fill="none" stroke="black" d="M251.5,-262.39C277.98,-251.44 312.84,-237.03 341,-225.39"/>
<polygon fill="#7d35a1" stroke="black" points="342.37,-228.61 350.27,-221.55 339.69,-222.14 342.37,-228.61"/>
</g>
<!-- todo__infrastructure_command_interface -->
<g id="node4" class="node">
<title>todo__infrastructure_command_interface</title><style>.edge>path:hover{stroke-width:8}</style>
<ellipse fill="#8f3db8" stroke="black" cx="391.3" cy="-303" rx="80.72" ry="21.43"/>
<text text-anchor="middle" x="391.3" y="-306" font-family="Helvetica,sans-Serif" font-size="10.00" fill="#ffffff">_infrastructure.</text>
<text text-anchor="middle" x="391.3" y="-295" font-family="Helvetica,sans-Serif" font-size="10.00" fill="#ffffff">command_interface</text>
</g>
<!-- todo__infrastructure__services&#45;&gt;todo__infrastructure_command_interface -->
<g id="edge16" class="edge">
<title>todo__infrastructure__services&#45;&gt;todo__infrastructure_command_interface</title><style>.edge>path:hover{stroke-width:8}</style>
<path fill="none" stroke="black" d="M270.43,-286.93C282.85,-288.59 296.14,-290.37 309.2,-292.12"/>
<polygon fill="#7d35a1" stroke="black" points="308.75,-295.59 319.12,-293.45 309.68,-288.66 308.75,-295.59"/>
</g>
<!-- todo__use_cases -->
<g id="node6" class="node">
<title>todo__use_cases</title><style>.edge>path:hover{stroke-width:8}</style>
<ellipse fill="#893ab0" stroke="black" cx="550.29" cy="-255" rx="42.27" ry="18"/>
<text text-anchor="middle" x="550.29" y="-252.5" font-family="Helvetica,sans-Serif" font-size="10.00" fill="#ffffff">_use_cases</text>
</g>
<!-- todo__infrastructure__services&#45;&gt;todo__use_cases -->
<g id="edge19" class="edge">
<title>todo__infrastructure__services&#45;&gt;todo__use_cases</title><style>.edge>path:hover{stroke-width:8}</style>
<path fill="none" stroke="black" d="M264.32,-267.41C299.8,-260.68 347.64,-253.6 390.3,-254"/>
<path fill="none" stroke="black" d="M392.3,-254C427.44,-254.33 467,-254.58 497.62,-254.75"/>
<polygon fill="#7d35a1" stroke="black" points="497.62,-258.25 507.64,-254.8 497.66,-251.25 497.62,-258.25"/>
</g>
<!-- todo__infrastructure__services&#45;&gt;todo_di -->
<g id="edge21" class="edge">
<title>todo__infrastructure__services&#45;&gt;todo_di</title><style>.edge>path:hover{stroke-width:8}</style>
<path fill="none" stroke="black" d="M392.3,-254C428.67,-254.34 437.18,-262.18 471.91,-273 507.12,-283.97 512.41,-303.17 549.29,-303"/>
<path fill="none" stroke="black" d="M551.29,-303C575.1,-302.89 601.87,-302.64 622.75,-302.42"/>
<polygon fill="#7d35a1" stroke="black" points="622.83,-305.92 632.79,-302.31 622.75,-298.92 622.83,-305.92"/>
</g>
<!-- todo__model -->
<g id="node5" class="node">
<title>todo__model</title><style>.edge>path:hover{stroke-width:8}</style>
<ellipse fill="#9d3bce" stroke="black" cx="659.87" cy="-210" rx="31.4" ry="18"/>
<text text-anchor="middle" x="659.87" y="-207.5" font-family="Helvetica,sans-Serif" font-size="10.00" fill="#ffffff">_model</text>
</g>
<!-- todo__infrastructure_adapters&#45;&gt;todo__model -->
<g id="edge17" class="edge">
<title>todo__infrastructure_adapters&#45;&gt;todo__model</title><style>.edge>path:hover{stroke-width:8}</style>
<path fill="none" stroke="black" d="M551.29,-164C580.13,-163.34 610.07,-177.57 631.02,-190.36"/>
<polygon fill="#6b2e8a" stroke="black" points="629.39,-193.47 639.7,-195.9 633.15,-187.57 629.39,-193.47"/>
</g>
<!-- csv -->
<g id="node8" class="node">
<title>csv</title><style>.edge>path:hover{stroke-width:8}</style>
<polygon fill="#b34c4c" stroke="black" points="874.57,-36 871.57,-40 850.57,-40 847.57,-36 820.57,-36 820.57,0 874.57,0 874.57,-36"/>
<text text-anchor="middle" x="847.57" y="-15.5" font-family="Helvetica,sans-Serif" font-size="10.00" fill="#ffffff">csv</text>
</g>
<!-- todo__infrastructure_adapters&#45;&gt;csv -->
<g id="edge1" class="edge">
<title>todo__infrastructure_adapters&#45;&gt;csv</title><style>.edge>path:hover{stroke-width:8}</style>
<path fill="none" stroke="black" d="M433.19,-188.74C464.44,-177.69 508.88,-164.92 549.29,-164"/>
<path fill="none" stroke="black" d="M551.29,-164C599.09,-162.91 611.06,-164.66 658.87,-164"/>
<path fill="none" stroke="black" d="M660.87,-164C707.36,-163.36 693.32,-114.97 727.07,-83 737.46,-73.16 740.71,-71.21 753.07,-64"/>
<path fill="none" stroke="black" d="M755.07,-64C773.21,-53.41 794.09,-42.8 811.32,-34.45"/>
<polygon fill="#6b2e8a" stroke="black" points="812.98,-37.53 820.48,-30.05 809.95,-31.22 812.98,-37.53"/>
</g>
<!-- datetime -->
<g id="node9" class="node">
<title>datetime</title><style>.edge>path:hover{stroke-width:8}</style>
<polygon fill="#b3914c" stroke="black" points="878.07,-266 875.07,-270 854.07,-270 851.07,-266 817.07,-266 817.07,-230 878.07,-230 878.07,-266"/>
<text text-anchor="middle" x="847.57" y="-245.5" font-family="Helvetica,sans-Serif" font-size="10.00" fill="#000000">datetime</text>
</g>
<!-- todo__infrastructure_adapters&#45;&gt;datetime -->
<g id="edge2" class="edge">
<title>todo__infrastructure_adapters&#45;&gt;datetime</title><style>.edge>path:hover{stroke-width:8}</style>
<path fill="none" stroke="black" d="M660.87,-164C707.37,-164 687.07,-221.3 727.07,-245 750.82,-259.07 782.15,-259.33 806.77,-256.33"/>
<polygon fill="#6b2e8a" stroke="black" points="807.47,-259.77 816.87,-254.88 806.47,-252.84 807.47,-259.77"/>
</g>
<!-- http -->
<g id="node10" class="node">
<title>http</title><style>.edge>path:hover{stroke-width:8}</style>
<polygon fill="#99c247" stroke="black" points="781.07,-128 778.07,-132 757.07,-132 754.07,-128 727.07,-128 727.07,-92 781.07,-92 781.07,-128"/>
<text text-anchor="middle" x="754.07" y="-107.5" font-family="Helvetica,sans-Serif" font-size="10.00" fill="#000000">http</text>
</g>
<!-- todo__infrastructure_adapters&#45;&gt;http -->
<g id="edge3" class="edge">
<title>todo__infrastructure_adapters&#45;&gt;http</title><style>.edge>path:hover{stroke-width:8}</style>
<path fill="none" stroke="black" d="M660.87,-164C685.74,-164 709.85,-149.19 727.17,-135.08"/>
<polygon fill="#6b2e8a" stroke="black" points="729.79,-137.45 735.11,-128.28 725.24,-132.13 729.79,-137.45"/>
</g>
<!-- io -->
<g id="node12" class="node">
<title>io</title><style>.edge>path:hover{stroke-width:8}</style>
<polygon fill="#3bce9d" stroke="black" points="968.07,-82 965.07,-86 944.07,-86 941.07,-82 914.07,-82 914.07,-46 968.07,-46 968.07,-82"/>
<text text-anchor="middle" x="941.07" y="-61.5" font-family="Helvetica,sans-Serif" font-size="10.00" fill="#000000">io</text>
</g>
<!-- todo__infrastructure_adapters&#45;&gt;io -->
<g id="edge7" class="edge">
<title>todo__infrastructure_adapters&#45;&gt;io</title><style>.edge>path:hover{stroke-width:8}</style>
<path fill="none" stroke="black" d="M755.07,-64C800.91,-37.25 864.65,-45.03 904.08,-53.91"/>
<polygon fill="#6b2e8a" stroke="black" points="903.5,-57.37 914.04,-56.3 905.13,-50.56 903.5,-57.37"/>
</g>
<!-- json -->
<g id="node13" class="node">
<title>json</title><style>.edge>path:hover{stroke-width:8}</style>
<polygon fill="#5395b6" stroke="black" points="781.07,-182 778.07,-186 757.07,-186 754.07,-182 727.07,-182 727.07,-146 781.07,-146 781.07,-182"/>
<text text-anchor="middle" x="754.07" y="-161.5" font-family="Helvetica,sans-Serif" font-size="10.00" fill="#000000">json</text>
</g>
<!-- todo__infrastructure_adapters&#45;&gt;json -->
<g id="edge8" class="edge">
<title>todo__infrastructure_adapters&#45;&gt;json</title><style>.edge>path:hover{stroke-width:8}</style>
<path fill="none" stroke="black" d="M660.87,-164C679.3,-164 699.8,-164 716.78,-164"/>
<polygon fill="#6b2e8a" stroke="black" points="716.84,-167.5 726.84,-164 716.84,-160.5 716.84,-167.5"/>
</g>
<!-- typing -->
<g id="node15" class="node">
<title>typing</title><style>.edge>path:hover{stroke-width:8}</style>
<polygon fill="#c04095" stroke="black" points="781.07,-236 778.07,-240 757.07,-240 754.07,-236 727.07,-236 727.07,-200 781.07,-200 781.07,-236"/>
<text text-anchor="middle" x="754.07" y="-215.5" font-family="Helvetica,sans-Serif" font-size="10.00" fill="#ffffff">typing</text>
</g>
<!-- todo__infrastructure_adapters&#45;&gt;typing -->
<g id="edge24" class="edge">
<title>todo__infrastructure_adapters&#45;&gt;typing</title><style>.edge>path:hover{stroke-width:8}</style>
<path fill="none" stroke="black" d="M660.87,-164C685.74,-164 709.85,-178.81 727.17,-192.92"/>
<polygon fill="#6b2e8a" stroke="black" points="725.24,-195.87 735.11,-199.72 729.79,-190.55 725.24,-195.87"/>
</g>
<!-- todo__infrastructure_command_interface&#45;&gt;todo_di -->
<g id="edge22" class="edge">
<title>todo__infrastructure_command_interface&#45;&gt;todo_di</title><style>.edge>path:hover{stroke-width:8}</style>
<path fill="none" stroke="black" d="M472.16,-303.14C496.89,-303.15 524.22,-303.11 549.29,-303"/>
</g>
<!-- sys -->
<g id="node14" class="node">
<title>sys</title><style>.edge>path:hover{stroke-width:8}</style>
<polygon fill="#2222e7" stroke="black" points="968.07,-243 965.07,-247 944.07,-247 941.07,-243 914.07,-243 914.07,-207 968.07,-207 968.07,-243"/>
<text text-anchor="middle" x="941.07" y="-222.5" font-family="Helvetica,sans-Serif" font-size="10.00" fill="#ffffff">sys</text>
</g>
<!-- todo__infrastructure_command_interface&#45;&gt;sys -->
<g id="edge12" class="edge">
<title>todo__infrastructure_command_interface&#45;&gt;sys</title><style>.edge>path:hover{stroke-width:8}</style>
<path fill="none" stroke="black" d="M448.26,-318.05C501.88,-331.13 585.3,-348 658.87,-348 658.87,-348 658.87,-348 755.07,-348 810.39,-348 832.21,-359.92 878.07,-329 904.91,-310.9 921.9,-276.94 931.17,-252.76"/>
<polygon fill="#8f3db8" stroke="black" points="934.57,-253.66 934.68,-243.06 927.99,-251.27 934.57,-253.66"/>
</g>
<!-- todo__use_cases&#45;&gt;todo__model -->
<g id="edge18" class="edge">
<title>todo__use_cases&#45;&gt;todo__model</title><style>.edge>path:hover{stroke-width:8}</style>
<path fill="none" stroke="black" d="M581.26,-242.46C594.8,-236.8 610.86,-230.08 624.85,-224.23"/>
<polygon fill="#893ab0" stroke="black" points="626.27,-227.43 634.15,-220.34 623.57,-220.97 626.27,-227.43"/>
</g>
<!-- todo__use_cases&#45;&gt;todo_di -->
<g id="edge23" class="edge">
<title>todo__use_cases&#45;&gt;todo_di</title><style>.edge>path:hover{stroke-width:8}</style>
<path fill="none" stroke="black" d="M580.41,-267.72C595,-274.1 612.7,-281.83 627.59,-288.33"/>
<polygon fill="#893ab0" stroke="black" points="626.34,-291.61 636.91,-292.4 629.15,-285.19 626.34,-291.61"/>
</g>
<!-- todo__use_cases&#45;&gt;typing -->
<g id="edge25" class="edge">
<title>todo__use_cases&#45;&gt;typing</title><style>.edge>path:hover{stroke-width:8}</style>
<path fill="none" stroke="black" d="M591.97,-251.6C620.03,-248.8 658.07,-244.13 691.07,-237 699.62,-235.16 708.68,-232.68 717.16,-230.13"/>
<polygon fill="#893ab0" stroke="black" points="718.28,-233.45 726.78,-227.13 716.2,-226.77 718.28,-233.45"/>
</g>
<!-- inspect -->
<g id="node11" class="node">
<title>inspect</title><style>.edge>path:hover{stroke-width:8}</style>
<polygon fill="#4cb34c" stroke="black" points="874.57,-320 871.57,-324 850.57,-324 847.57,-320 820.57,-320 820.57,-284 874.57,-284 874.57,-320"/>
<text text-anchor="middle" x="847.57" y="-299.5" font-family="Helvetica,sans-Serif" font-size="10.00" fill="#000000">inspect</text>
</g>
<!-- todo_di&#45;&gt;inspect -->
<g id="edge4" class="edge">
<title>todo_di&#45;&gt;inspect</title><style>.edge>path:hover{stroke-width:8}</style>
<path fill="none" stroke="black" d="M687.09,-302C719.3,-302 774.13,-302 810.35,-302"/>
<polygon fill="#a219e6" stroke="black" points="810.49,-305.5 820.49,-302 810.49,-298.5 810.49,-305.5"/>
</g>
<!-- csv&#45;&gt;io -->
<g id="edge5" class="edge">
<title>csv&#45;&gt;io</title><style>.edge>path:hover{stroke-width:8}</style>
<path fill="none" stroke="black" d="M875.04,-31.31C884.32,-35.97 894.89,-41.29 904.78,-46.26"/>
<polygon fill="#b34c4c" stroke="black" points="903.48,-49.52 913.98,-50.88 906.62,-43.26 903.48,-49.52"/>
</g>
<!-- datetime&#45;&gt;sys -->
<g id="edge9" class="edge">
<title>datetime&#45;&gt;sys</title><style>.edge>path:hover{stroke-width:8}</style>
<path fill="none" stroke="black" d="M878.28,-240.53C886.53,-238.46 895.58,-236.18 904.15,-234.03"/>
<polygon fill="#b3914c" stroke="black" points="905.06,-237.41 913.91,-231.58 903.35,-230.62 905.06,-237.41"/>
</g>
<!-- http&#45;&gt;io -->
<g id="edge6" class="edge">
<title>http&#45;&gt;io</title><style>.edge>path:hover{stroke-width:8}</style>
<path fill="none" stroke="black" d="M781.14,-119.3C799.26,-125.37 824.09,-132.89 846.57,-137"/>
<path fill="none" stroke="black" d="M848.57,-137C880.13,-142.76 907.55,-113.67 923.95,-90.51"/>
<polygon fill="#99c247" stroke="black" points="926.99,-92.26 929.68,-82.01 921.19,-88.35 926.99,-92.26"/>
</g>
<!-- http&#45;&gt;sys -->
<g id="edge10" class="edge">
<title>http&#45;&gt;sys</title><style>.edge>path:hover{stroke-width:8}</style>
<path fill="none" stroke="black" d="M848.57,-137C882.41,-143.18 909,-174.53 924.6,-198.06"/>
<polygon fill="#99c247" stroke="black" points="921.72,-200.06 930.03,-206.63 927.63,-196.31 921.72,-200.06"/>
</g>
<!-- inspect&#45;&gt;sys -->
<g id="edge11" class="edge">
<title>inspect&#45;&gt;sys</title><style>.edge>path:hover{stroke-width:8}</style>
<path fill="none" stroke="black" d="M870.26,-283.75C882.34,-273.59 897.54,-260.79 910.68,-249.74"/>
<polygon fill="#4cb34c" stroke="black" points="913.15,-252.23 918.55,-243.12 908.64,-246.88 913.15,-252.23"/>
</g>
<!-- typing&#45;&gt;sys -->
<g id="edge13" class="edge">
<title>typing&#45;&gt;sys</title><style>.edge>path:hover{stroke-width:8}</style>
<path fill="none" stroke="black" d="M781.48,-218.34C806.39,-218.73 844.78,-219.52 878.07,-221 886.42,-221.37 895.4,-221.88 903.86,-222.42"/>
<polygon fill="#c04095" stroke="black" points="903.63,-225.91 913.84,-223.07 904.09,-218.93 903.63,-225.91"/>
</g>
</g>
</svg>
