<?xml version="1.0" encoding="UTF-8" standalone="no"?>
<!DOCTYPE svg PUBLIC "-//W3C//DTD SVG 1.1//EN"
 "http://www.w3.org/Graphics/SVG/1.1/DTD/svg11.dtd">
<!-- Generated by graphviz version 2.43.0 (0)
 -->
<!-- Title: G Pages: 1 -->
<svg width="1629pt" height="359pt"
 viewBox="0.00 0.00 1628.98 359.43" xmlns="http://www.w3.org/2000/svg" xmlns:xlink="http://www.w3.org/1999/xlink">
<g id="graph0" class="graph" transform="scale(1 1) rotate(0) translate(4 355.43)">
<title>G</title><style>.edge>path:hover{stroke-width:8}</style>
<polygon fill="white" stroke="transparent" points="-4,4 -4,-355.43 1624.98,-355.43 1624.98,4 -4,4"/>
<!-- todo___main__ -->
<g id="node1" class="node">
<title>todo___main__</title><style>.edge>path:hover{stroke-width:8}</style>
<ellipse fill="#7546a4" stroke="black" cx="36.5" cy="-169" rx="36.49" ry="18"/>
<text text-anchor="middle" x="36.5" y="-166.5" font-family="Helvetica,sans-Serif" font-size="10.00" fill="#ffffff">__main__</text>
</g>
<!-- todo__infrastructure -->
<g id="node2" class="node">
<title>todo__infrastructure</title><style>.edge>path:hover{stroke-width:8}</style>
<ellipse fill="#6b15c1" stroke="black" cx="160.8" cy="-146" rx="51.61" ry="18"/>
<text text-anchor="middle" x="160.8" y="-143.5" font-family="Helvetica,sans-Serif" font-size="10.00" fill="#ffffff">_infrastructure</text>
</g>
<!-- todo___main__&#45;&gt;todo__infrastructure -->
<g id="edge12" class="edge">
<title>todo___main__&#45;&gt;todo__infrastructure</title><style>.edge>path:hover{stroke-width:8}</style>
<path fill="none" stroke="black" d="M70.92,-162.72C81.42,-160.74 93.31,-158.5 104.89,-156.33"/>
<polygon fill="#7546a4" stroke="black" points="105.77,-159.72 114.95,-154.43 104.48,-152.84 105.77,-159.72"/>
</g>
<!-- todo_core_right_ports -->
<g id="node10" class="node">
<title>todo_core_right_ports</title><style>.edge>path:hover{stroke-width:8}</style>
<ellipse fill="#7517d3" stroke="black" cx="1175.6" cy="-117" rx="48.58" ry="21.43"/>
<text text-anchor="middle" x="1175.6" y="-120" font-family="Helvetica,sans-Serif" font-size="10.00" fill="#ffffff">core.</text>
<text text-anchor="middle" x="1175.6" y="-109" font-family="Helvetica,sans-Serif" font-size="10.00" fill="#ffffff">right_ports</text>
</g>
<!-- todo___main__&#45;&gt;todo_core_right_ports -->
<g id="edge23" class="edge">
<title>todo___main__&#45;&gt;todo_core_right_ports</title><style>.edge>path:hover{stroke-width:8}</style>
<path fill="none" stroke="black" d="M72.76,-171.36C84.3,-172.03 97.19,-172.67 108.99,-173 155.02,-174.29 166.57,-174.24 212.6,-173 369.85,-168.78 413.95,-194.24 566.03,-154 583.32,-149.42 584.53,-139.72 602.03,-136"/>
</g>
<!-- todo__infrastructure__left_adapters -->
<g id="node4" class="node">
<title>todo__infrastructure__left_adapters</title><style>.edge>path:hover{stroke-width:8}</style>
<ellipse fill="#7038a8" stroke="black" cx="312.95" cy="-125" rx="64.19" ry="21.43"/>
<text text-anchor="middle" x="312.95" y="-128" font-family="Helvetica,sans-Serif" font-size="10.00" fill="#ffffff">_infrastructure.</text>
<text text-anchor="middle" x="312.95" y="-117" font-family="Helvetica,sans-Serif" font-size="10.00" fill="#ffffff">_left_adapters</text>
</g>
<!-- todo__infrastructure&#45;&gt;todo__infrastructure__left_adapters -->
<g id="edge14" class="edge">
<title>todo__infrastructure&#45;&gt;todo__infrastructure__left_adapters</title><style>.edge>path:hover{stroke-width:8}</style>
<path fill="none" stroke="black" d="M209.3,-139.36C220.14,-137.84 231.86,-136.2 243.37,-134.59"/>
<polygon fill="#6b15c1" stroke="black" points="243.99,-138.04 253.41,-133.19 243.02,-131.11 243.99,-138.04"/>
</g>
<!-- todo__infrastructure__right_adapters -->
<g id="node6" class="node">
<title>todo__infrastructure__right_adapters</title><style>.edge>path:hover{stroke-width:8}</style>
<ellipse fill="#6b35a1" stroke="black" cx="704.08" cy="-185" rx="65.11" ry="21.43"/>
<text text-anchor="middle" x="704.08" y="-188" font-family="Helvetica,sans-Serif" font-size="10.00" fill="#ffffff">_infrastructure.</text>
<text text-anchor="middle" x="704.08" y="-177" font-family="Helvetica,sans-Serif" font-size="10.00" fill="#ffffff">_right_adapters</text>
</g>
<!-- todo__infrastructure&#45;&gt;todo__infrastructure__right_adapters -->
<g id="edge16" class="edge">
<title>todo__infrastructure&#45;&gt;todo__infrastructure__right_adapters</title><style>.edge>path:hover{stroke-width:8}</style>
<path fill="none" stroke="black" d="M210.43,-151.37C222.87,-152.65 236.22,-153.95 248.6,-155 382.89,-166.39 539.81,-175.91 629.7,-181"/>
<polygon fill="#6b15c1" stroke="black" points="629.61,-184.5 639.8,-181.57 630.01,-177.51 629.61,-184.5"/>
</g>
<!-- todo_core_use_cases -->
<g id="node11" class="node">
<title>todo_core_use_cases</title><style>.edge>path:hover{stroke-width:8}</style>
<ellipse fill="#702db4" stroke="black" cx="947.97" cy="-87" rx="53.64" ry="18"/>
<text text-anchor="middle" x="947.97" y="-84.5" font-family="Helvetica,sans-Serif" font-size="10.00" fill="#ffffff">core.use_cases</text>
</g>
<!-- todo__infrastructure&#45;&gt;todo_core_use_cases -->
<g id="edge27" class="edge">
<title>todo__infrastructure&#45;&gt;todo_core_use_cases</title><style>.edge>path:hover{stroke-width:8}</style>
<path fill="none" stroke="black" d="M184.77,-129.94C201.72,-118.73 225.73,-104.19 248.6,-95 350.35,-54.1 379,-38 488.66,-38 488.66,-38 488.66,-38 603.03,-38 706.72,-38 826.26,-60.1 893.6,-74.62"/>
<polygon fill="#6b15c1" stroke="black" points="893.03,-78.07 903.55,-76.79 894.52,-71.24 893.03,-78.07"/>
</g>
<!-- todo__infrastructure__get_todos_from_api_with_http_client -->
<g id="node3" class="node">
<title>todo__infrastructure__get_todos_from_api_with_http_client</title><style>.edge>path:hover{stroke-width:8}</style>
<ellipse fill="#613091" stroke="black" cx="947.97" cy="-245" rx="142.67" ry="21.43"/>
<text text-anchor="middle" x="947.97" y="-248" font-family="Helvetica,sans-Serif" font-size="10.00" fill="#ffffff">_infrastructure.</text>
<text text-anchor="middle" x="947.97" y="-237" font-family="Helvetica,sans-Serif" font-size="10.00" fill="#ffffff">_get_todos_from_api_with_http_client</text>
</g>
<!-- todo_core_model -->
<g id="node9" class="node">
<title>todo_core_model</title><style>.edge>path:hover{stroke-width:8}</style>
<ellipse fill="#8522e7" stroke="black" cx="1302.18" cy="-117" rx="41.59" ry="18"/>
<text text-anchor="middle" x="1302.18" y="-114.5" font-family="Helvetica,sans-Serif" font-size="10.00" fill="#ffffff">core.model</text>
</g>
<!-- todo__infrastructure__get_todos_from_api_with_http_client&#45;&gt;todo_core_model -->
<g id="edge19" class="edge">
<title>todo__infrastructure__get_todos_from_api_with_http_client&#45;&gt;todo_core_model</title><style>.edge>path:hover{stroke-width:8}</style>
<path fill="none" stroke="black" d="M1044.42,-229.21C1060.17,-225.36 1076.13,-220.67 1090.81,-215 1131.05,-199.45 1133.27,-178.36 1174.6,-166"/>
</g>
<!-- http -->
<g id="node14" class="node">
<title>http</title><style>.edge>path:hover{stroke-width:8}</style>
<polygon fill="#85c247" stroke="black" points="1433.98,-268 1430.98,-272 1409.98,-272 1406.98,-268 1379.98,-268 1379.98,-232 1433.98,-232 1433.98,-268"/>
<text text-anchor="middle" x="1406.98" y="-247.5" font-family="Helvetica,sans-Serif" font-size="10.00" fill="#000000">http</text>
</g>
<!-- todo__infrastructure__get_todos_from_api_with_http_client&#45;&gt;http -->
<g id="edge3" class="edge">
<title>todo__infrastructure__get_todos_from_api_with_http_client&#45;&gt;http</title><style>.edge>path:hover{stroke-width:8}</style>
<path fill="none" stroke="black" d="M1303.18,-304C1328.69,-299.68 1354.46,-286.12 1373.82,-273.67"/>
<polygon fill="#613091" stroke="black" points="1375.85,-276.52 1382.23,-268.07 1371.97,-270.7 1375.85,-276.52"/>
</g>
<!-- io -->
<g id="node15" class="node">
<title>io</title><style>.edge>path:hover{stroke-width:8}</style>
<polygon fill="#3bce60" stroke="black" points="1620.98,-351 1617.98,-355 1596.98,-355 1593.98,-351 1566.98,-351 1566.98,-315 1620.98,-315 1620.98,-351"/>
<text text-anchor="middle" x="1593.98" y="-330.5" font-family="Helvetica,sans-Serif" font-size="10.00" fill="#000000">io</text>
</g>
<!-- todo__infrastructure__get_todos_from_api_with_http_client&#45;&gt;io -->
<g id="edge6" class="edge">
<title>todo__infrastructure__get_todos_from_api_with_http_client&#45;&gt;io</title><style>.edge>path:hover{stroke-width:8}</style>
<path fill="none" stroke="black" d="M1303.18,-304C1339,-298.88 1344.9,-322.12 1379.98,-331 1432.11,-344.19 1446.35,-341.67 1499.48,-350"/>
</g>
<!-- json -->
<g id="node16" class="node">
<title>json</title><style>.edge>path:hover{stroke-width:8}</style>
<polygon fill="#53b6b6" stroke="black" points="1433.98,-322 1430.98,-326 1409.98,-326 1406.98,-322 1379.98,-322 1379.98,-286 1433.98,-286 1433.98,-322"/>
<text text-anchor="middle" x="1406.98" y="-301.5" font-family="Helvetica,sans-Serif" font-size="10.00" fill="#000000">json</text>
</g>
<!-- todo__infrastructure__get_todos_from_api_with_http_client&#45;&gt;json -->
<g id="edge7" class="edge">
<title>todo__infrastructure__get_todos_from_api_with_http_client&#45;&gt;json</title><style>.edge>path:hover{stroke-width:8}</style>
<path fill="none" stroke="black" d="M1303.18,-304C1324.96,-300.32 1349.7,-300.19 1369.46,-301.05"/>
<polygon fill="#613091" stroke="black" points="1369.41,-304.55 1379.58,-301.59 1369.78,-297.56 1369.41,-304.55"/>
</g>
<!-- typing -->
<g id="node18" class="node">
<title>typing</title><style>.edge>path:hover{stroke-width:8}</style>
<polygon fill="#d926ac" stroke="black" points="1527.48,-92 1524.48,-96 1503.48,-96 1500.48,-92 1473.48,-92 1473.48,-56 1527.48,-56 1527.48,-92"/>
<text text-anchor="middle" x="1500.48" y="-71.5" font-family="Helvetica,sans-Serif" font-size="10.00" fill="#ffffff">typing</text>
</g>
<!-- todo__infrastructure__get_todos_from_api_with_http_client&#45;&gt;typing -->
<g id="edge29" class="edge">
<title>todo__infrastructure__get_todos_from_api_with_http_client&#45;&gt;typing</title><style>.edge>path:hover{stroke-width:8}</style>
<path fill="none" stroke="black" d="M1001.19,-264.72C1069.97,-288.17 1194.66,-322.02 1301.18,-304"/>
<path fill="none" stroke="black" d="M1303.18,-304C1331.98,-299.24 1449.89,-122.19 1469.98,-101 1470.5,-100.45 1471.03,-99.9 1471.56,-99.35"/>
<polygon fill="#613091" stroke="black" points="1474.13,-101.73 1478.81,-92.23 1469.22,-96.74 1474.13,-101.73"/>
</g>
<!-- todo__infrastructure__run_as_command -->
<g id="node7" class="node">
<title>todo__infrastructure__run_as_command</title><style>.edge>path:hover{stroke-width:8}</style>
<ellipse fill="#753ab0" stroke="black" cx="489.66" cy="-87" rx="76.24" ry="21.43"/>
<text text-anchor="middle" x="489.66" y="-90" font-family="Helvetica,sans-Serif" font-size="10.00" fill="#ffffff">_infrastructure.</text>
<text text-anchor="middle" x="489.66" y="-79" font-family="Helvetica,sans-Serif" font-size="10.00" fill="#ffffff">_run_as_command</text>
</g>
<!-- todo__infrastructure__left_adapters&#45;&gt;todo__infrastructure__run_as_command -->
<g id="edge17" class="edge">
<title>todo__infrastructure__left_adapters&#45;&gt;todo__infrastructure__run_as_command</title><style>.edge>path:hover{stroke-width:8}</style>
<path fill="none" stroke="black" d="M367.31,-113.39C383.59,-109.85 401.73,-105.91 418.92,-102.17"/>
<polygon fill="#7038a8" stroke="black" points="419.88,-105.54 428.91,-100 418.39,-98.7 419.88,-105.54"/>
</g>
<!-- todo__infrastructure__left_adapters&#45;&gt;todo_core_right_ports -->
<g id="edge24" class="edge">
<title>todo__infrastructure__left_adapters&#45;&gt;todo_core_right_ports</title><style>.edge>path:hover{stroke-width:8}</style>
<path fill="none" stroke="black" d="M371.48,-133.91C429.93,-141.39 522.88,-148.97 602.03,-136"/>
<path fill="none" stroke="black" d="M603.03,-136C753.68,-110.09 794.75,-150 946.97,-136"/>
<path fill="none" stroke="black" d="M948.97,-136C1006.33,-131.2 1071.89,-125.67 1117.5,-121.82"/>
<polygon fill="#7038a8" stroke="black" points="1117.82,-125.31 1127.49,-120.98 1117.24,-118.33 1117.82,-125.31"/>
</g>
<!-- todo__infrastructure__persist_todo_as_csv_with_dict_csv -->
<g id="node5" class="node">
<title>todo__infrastructure__persist_todo_as_csv_with_dict_csv</title><style>.edge>path:hover{stroke-width:8}</style>
<ellipse fill="#6b35a1" stroke="black" cx="947.97" cy="-185" rx="135.11" ry="21.43"/>
<text text-anchor="middle" x="947.97" y="-188" font-family="Helvetica,sans-Serif" font-size="10.00" fill="#ffffff">_infrastructure.</text>
<text text-anchor="middle" x="947.97" y="-177" font-family="Helvetica,sans-Serif" font-size="10.00" fill="#ffffff">_persist_todo_as_csv_with_dict_csv</text>
</g>
<!-- todo__infrastructure__persist_todo_as_csv_with_dict_csv&#45;&gt;todo_core_model -->
<g id="edge20" class="edge">
<title>todo__infrastructure__persist_todo_as_csv_with_dict_csv&#45;&gt;todo_core_model</title><style>.edge>path:hover{stroke-width:8}</style>
<path fill="none" stroke="black" d="M1082.51,-182.9C1113.22,-179.92 1145.41,-174.73 1174.6,-166"/>
<path fill="none" stroke="black" d="M1176.6,-166C1206.28,-157.12 1238.83,-144.2 1263.21,-133.86"/>
<polygon fill="#6b35a1" stroke="black" points="1264.66,-137.05 1272.47,-129.89 1261.9,-130.62 1264.66,-137.05"/>
</g>
<!-- csv -->
<g id="node12" class="node">
<title>csv</title><style>.edge>path:hover{stroke-width:8}</style>
<polygon fill="#b34c4c" stroke="black" points="1527.48,-286 1524.48,-290 1503.48,-290 1500.48,-286 1473.48,-286 1473.48,-250 1527.48,-250 1527.48,-286"/>
<text text-anchor="middle" x="1500.48" y="-265.5" font-family="Helvetica,sans-Serif" font-size="10.00" fill="#ffffff">csv</text>
</g>
<!-- todo__infrastructure__persist_todo_as_csv_with_dict_csv&#45;&gt;csv -->
<g id="edge1" class="edge">
<title>todo__infrastructure__persist_todo_as_csv_with_dict_csv&#45;&gt;csv</title><style>.edge>path:hover{stroke-width:8}</style>
<path fill="none" stroke="black" d="M1303.18,-204C1361.04,-193.83 1379.28,-201.59 1433.98,-223 1446.75,-228 1459.48,-235.9 1470.28,-243.7"/>
<polygon fill="#6b35a1" stroke="black" points="1468.39,-246.66 1478.48,-249.87 1472.6,-241.07 1468.39,-246.66"/>
</g>
<!-- datetime -->
<g id="node13" class="node">
<title>datetime</title><style>.edge>path:hover{stroke-width:8}</style>
<polygon fill="#b3994c" stroke="black" points="1530.98,-146 1527.98,-150 1506.98,-150 1503.98,-146 1469.98,-146 1469.98,-110 1530.98,-110 1530.98,-146"/>
<text text-anchor="middle" x="1500.48" y="-125.5" font-family="Helvetica,sans-Serif" font-size="10.00" fill="#000000">datetime</text>
</g>
<!-- todo__infrastructure__persist_todo_as_csv_with_dict_csv&#45;&gt;datetime -->
<g id="edge2" class="edge">
<title>todo__infrastructure__persist_todo_as_csv_with_dict_csv&#45;&gt;datetime</title><style>.edge>path:hover{stroke-width:8}</style>
<path fill="none" stroke="black" d="M1407.98,-128C1423.82,-120.26 1443.12,-119.24 1459.9,-120.55"/>
<polygon fill="#6b35a1" stroke="black" points="1459.66,-124.05 1469.97,-121.64 1460.41,-117.09 1459.66,-124.05"/>
</g>
<!-- todo__infrastructure__persist_todo_as_csv_with_dict_csv&#45;&gt;typing -->
<g id="edge30" class="edge">
<title>todo__infrastructure__persist_todo_as_csv_with_dict_csv&#45;&gt;typing</title><style>.edge>path:hover{stroke-width:8}</style>
<path fill="none" stroke="black" d="M1041.09,-200.38C1112.46,-209.8 1213.6,-217.66 1301.18,-204"/>
<path fill="none" stroke="black" d="M1303.18,-204C1359.1,-193.92 1354.92,-152.93 1405.98,-128"/>
<path fill="none" stroke="black" d="M1407.98,-128C1427.14,-118.64 1447.65,-106.73 1464.39,-96.47"/>
<polygon fill="#6b35a1" stroke="black" points="1466.61,-99.21 1473.26,-90.97 1462.92,-93.26 1466.61,-99.21"/>
</g>
<!-- todo__infrastructure__right_adapters&#45;&gt;todo__infrastructure__get_todos_from_api_with_http_client -->
<g id="edge13" class="edge">
<title>todo__infrastructure__right_adapters&#45;&gt;todo__infrastructure__get_todos_from_api_with_http_client</title><style>.edge>path:hover{stroke-width:8}</style>
<path fill="none" stroke="black" d="M751.18,-199.69C768.07,-204.85 787.39,-210.47 805.14,-215 819.94,-218.78 835.7,-222.45 851.12,-225.86"/>
<polygon fill="#6b35a1" stroke="black" points="850.69,-229.34 861.2,-228.05 852.18,-222.5 850.69,-229.34"/>
</g>
<!-- todo__infrastructure__right_adapters&#45;&gt;todo__infrastructure__persist_todo_as_csv_with_dict_csv -->
<g id="edge15" class="edge">
<title>todo__infrastructure__right_adapters&#45;&gt;todo__infrastructure__persist_todo_as_csv_with_dict_csv</title><style>.edge>path:hover{stroke-width:8}</style>
<path fill="none" stroke="black" d="M769.27,-185C779.77,-185 791.01,-185 802.54,-185"/>
<polygon fill="#6b35a1" stroke="black" points="802.74,-188.5 812.74,-185 802.74,-181.5 802.74,-188.5"/>
</g>
<!-- todo__infrastructure__right_adapters&#45;&gt;todo_core_right_ports -->
<g id="edge25" class="edge">
<title>todo__infrastructure__right_adapters&#45;&gt;todo_core_right_ports</title><style>.edge>path:hover{stroke-width:8}</style>
<path fill="none" stroke="black" d="M750.01,-169.88C767.11,-164.56 786.88,-158.93 805.14,-155 867.31,-141.6 883.64,-141.82 946.97,-136"/>
</g>
<!-- todo_core_left_ports -->
<g id="node8" class="node">
<title>todo_core_left_ports</title><style>.edge>path:hover{stroke-width:8}</style>
<ellipse fill="#7a3db8" stroke="black" cx="704.08" cy="-87" rx="43.68" ry="21.43"/>
<text text-anchor="middle" x="704.08" y="-90" font-family="Helvetica,sans-Serif" font-size="10.00" fill="#ffffff">core.</text>
<text text-anchor="middle" x="704.08" y="-79" font-family="Helvetica,sans-Serif" font-size="10.00" fill="#ffffff">left_ports</text>
</g>
<!-- todo__infrastructure__run_as_command&#45;&gt;todo_core_left_ports -->
<g id="edge18" class="edge">
<title>todo__infrastructure__run_as_command&#45;&gt;todo_core_left_ports</title><style>.edge>path:hover{stroke-width:8}</style>
<path fill="none" stroke="black" d="M603.03,-76C619.75,-72.55 638.29,-73.34 654.81,-75.63"/>
<polygon fill="#753ab0" stroke="black" points="654.38,-79.1 664.81,-77.22 655.49,-72.19 654.38,-79.1"/>
</g>
<!-- sys -->
<g id="node17" class="node">
<title>sys</title><style>.edge>path:hover{stroke-width:8}</style>
<polygon fill="#2f5adb" stroke="black" points="1620.98,-119 1617.98,-123 1596.98,-123 1593.98,-119 1566.98,-119 1566.98,-83 1620.98,-83 1620.98,-119"/>
<text text-anchor="middle" x="1593.98" y="-98.5" font-family="Helvetica,sans-Serif" font-size="10.00" fill="#ffffff">sys</text>
</g>
<!-- todo__infrastructure__run_as_command&#45;&gt;sys -->
<g id="edge10" class="edge">
<title>todo__infrastructure__run_as_command&#45;&gt;sys</title><style>.edge>path:hover{stroke-width:8}</style>
<path fill="none" stroke="black" d="M564.08,-81.96C576.8,-80.46 589.85,-78.51 602.03,-76"/>
<path fill="none" stroke="black" d="M603.03,-76C620.75,-72.34 621.94,-62.94 639.03,-57 770.51,-11.33 807.78,0 946.97,0 946.97,0 946.97,0 1407.98,0 1466.5,0 1480.81,-16.87 1530.98,-47 1544.27,-54.98 1557.45,-65.91 1568.21,-75.85"/>
<polygon fill="#753ab0" stroke="black" points="1565.93,-78.51 1575.59,-82.86 1570.75,-73.44 1565.93,-78.51"/>
</g>
<!-- todo_core_left_ports&#45;&gt;todo_core_use_cases -->
<g id="edge28" class="edge">
<title>todo_core_left_ports&#45;&gt;todo_core_use_cases</title><style>.edge>path:hover{stroke-width:8}</style>
<path fill="none" stroke="black" d="M748.05,-87C785.88,-87 841.45,-87 884.25,-87"/>
<polygon fill="#7a3db8" stroke="black" points="884.28,-90.5 894.28,-87 884.28,-83.5 884.28,-90.5"/>
</g>
<!-- todo_core_right_ports&#45;&gt;todo_core_model -->
<g id="edge21" class="edge">
<title>todo_core_right_ports&#45;&gt;todo_core_model</title><style>.edge>path:hover{stroke-width:8}</style>
<path fill="none" stroke="black" d="M1224.41,-117C1232.8,-117 1241.56,-117 1250.04,-117"/>
<polygon fill="#7517d3" stroke="black" points="1250.19,-120.5 1260.19,-117 1250.19,-113.5 1250.19,-120.5"/>
</g>
<!-- todo_core_right_ports&#45;&gt;typing -->
<g id="edge31" class="edge">
<title>todo_core_right_ports&#45;&gt;typing</title><style>.edge>path:hover{stroke-width:8}</style>
<path fill="none" stroke="black" d="M1206.75,-100.63C1231.34,-88.59 1267.41,-73.85 1301.18,-71"/>
</g>
<!-- todo_core_use_cases&#45;&gt;todo_core_model -->
<g id="edge22" class="edge">
<title>todo_core_use_cases&#45;&gt;todo_core_model</title><style>.edge>path:hover{stroke-width:8}</style>
<path fill="none" stroke="black" d="M1176.6,-68C1209.51,-69.97 1244.21,-84.8 1268.6,-97.64"/>
<polygon fill="#702db4" stroke="black" points="1266.97,-100.73 1277.42,-102.43 1270.31,-94.58 1266.97,-100.73"/>
</g>
<!-- todo_core_use_cases&#45;&gt;todo_core_right_ports -->
<g id="edge26" class="edge">
<title>todo_core_use_cases&#45;&gt;todo_core_right_ports</title><style>.edge>path:hover{stroke-width:8}</style>
<path fill="none" stroke="black" d="M997.93,-93.51C1033.47,-98.24 1081.62,-104.64 1118.67,-109.56"/>
<polygon fill="#702db4" stroke="black" points="1118.44,-113.06 1128.81,-110.91 1119.36,-106.12 1118.44,-113.06"/>
</g>
<!-- todo_core_use_cases&#45;&gt;typing -->
<g id="edge32" class="edge">
<title>todo_core_use_cases&#45;&gt;typing</title><style>.edge>path:hover{stroke-width:8}</style>
<path fill="none" stroke="black" d="M996.46,-79.02C1042.09,-72.3 1112.99,-64.32 1174.6,-68"/>
<path fill="none" stroke="black" d="M1176.6,-68C1231.89,-71.3 1245.99,-75.65 1301.18,-71"/>
<path fill="none" stroke="black" d="M1303.18,-71C1358.87,-66.3 1423.75,-68.85 1463.2,-71.3"/>
<polygon fill="#702db4" stroke="black" points="1463.18,-74.8 1473.38,-71.96 1463.63,-67.82 1463.18,-74.8"/>
</g>
<!-- csv&#45;&gt;io -->
<g id="edge4" class="edge">
<title>csv&#45;&gt;io</title><style>.edge>path:hover{stroke-width:8}</style>
<path fill="none" stroke="black" d="M1526.96,-286.11C1536.98,-293.22 1548.62,-301.49 1559.31,-309.08"/>
<polygon fill="#b34c4c" stroke="black" points="1557.45,-312.05 1567.63,-314.99 1561.5,-306.35 1557.45,-312.05"/>
</g>
<!-- datetime&#45;&gt;sys -->
<g id="edge8" class="edge">
<title>datetime&#45;&gt;sys</title><style>.edge>path:hover{stroke-width:8}</style>
<path fill="none" stroke="black" d="M1531.18,-119.23C1539.44,-116.8 1548.48,-114.13 1557.05,-111.6"/>
<polygon fill="#b3994c" stroke="black" points="1558.21,-114.91 1566.81,-108.72 1556.23,-108.2 1558.21,-114.91"/>
</g>
<!-- http&#45;&gt;io -->
<g id="edge5" class="edge">
<title>http&#45;&gt;io</title><style>.edge>path:hover{stroke-width:8}</style>
<path fill="none" stroke="black" d="M1425.69,-268.22C1428.48,-271.14 1431.32,-274.14 1433.98,-277 1463.66,-308.93 1456.41,-343.24 1499.48,-350"/>
<path fill="none" stroke="black" d="M1501.48,-350C1519.72,-352.86 1539.91,-349.78 1556.67,-345.49"/>
<polygon fill="#85c247" stroke="black" points="1557.93,-348.77 1566.62,-342.71 1556.04,-342.03 1557.93,-348.77"/>
</g>
<!-- http&#45;&gt;sys -->
<g id="edge9" class="edge">
<title>http&#45;&gt;sys</title><style>.edge>path:hover{stroke-width:8}</style>
<path fill="none" stroke="black" d="M1432.35,-231.85C1457.4,-213.03 1497.39,-182.55 1530.98,-155 1542.32,-145.69 1554.55,-135.15 1565.13,-125.87"/>
<polygon fill="#85c247" stroke="black" points="1567.67,-128.3 1572.85,-119.06 1563.04,-123.05 1567.67,-128.3"/>
</g>
<!-- typing&#45;&gt;sys -->
<g id="edge11" class="edge">
<title>typing&#45;&gt;sys</title><style>.edge>path:hover{stroke-width:8}</style>
<path fill="none" stroke="black" d="M1527.94,-81.81C1537.03,-84.49 1547.36,-87.54 1557.07,-90.4"/>
<polygon fill="#d926ac" stroke="black" points="1556.31,-93.83 1566.89,-93.3 1558.29,-87.11 1556.31,-93.83"/>
</g>
</g>
</svg>
